<svg width="45" height="32" viewBox="0 0 45 32" fill="none" xmlns="http://www.w3.org/2000/svg">
<path d="M14.1387 16.0196C15.1052 16.0196 15.8887 15.307 15.8887 14.428C15.8887 13.549 15.1052 12.8364 14.1387 12.8364C13.1722 12.8364 12.3887 13.549 12.3887 14.428C12.3887 15.307 13.1722 16.0196 14.1387 16.0196Z" stroke="white" stroke-width="2"/>
<path d="M29.8887 16.0196C30.8552 16.0196 31.6387 15.307 31.6387 14.428C31.6387 13.549 30.8552 12.8364 29.8887 12.8364C28.9222 12.8364 28.1387 13.549 28.1387 14.428C28.1387 15.307 28.9222 16.0196 29.8887 16.0196Z" stroke="white" stroke-width="2"/>
<path d="M1 25.1372C1 17.4929 4.00183 7.39141 7.00371 3.2962C7.00371 3.2962 10.0056 1.93115 22.0129 1.93115C34.0203 1.93115 37.0223 3.2962 37.0223 3.2962C40.0239 7.39141 43.0258 17.4929 43.0258 25.1372C42.0252 26.5024 38.5231 29.5055 32.5194 30.5976L27.2388 24.5943C25.6717 24.9292 23.8881 25.1372 22.0129 25.1372C20.1378 25.1372 18.3541 24.9292 16.7871 24.5943L11.5065 30.5976C5.50277 29.5055 2.0006 26.5024 1 25.1372Z" stroke="white" stroke-width="2" stroke-linecap="round" stroke-linejoin="round"/>
<path d="M11.5066 22.4077C12.4215 23.2398 14.3404 24.0719 16.7871 24.5949C18.3542 24.9298 20.1379 25.1378 22.013 25.1378C23.8882 25.1378 25.6719 24.9298 27.239 24.5949C29.6857 24.0719 31.6046 23.2398 32.5195 22.4077" stroke="white" stroke-width="2" stroke-linecap="round" stroke-linejoin="round"/>
</svg>
